<svg width="16" height="17" viewBox="0 0 16 17" fill="none" xmlns="http://www.w3.org/2000/svg">
<g clip-path="url(#clip0_1_11)">
<path d="M8 5.27051C6.34582 5.27051 5 6.58701 5 8.20515C5 9.82329 6.34582 11.1398 8 11.1398C9.65418 11.1398 11 9.82329 11 8.20515C11 6.58701 9.65429 5.27051 8 5.27051Z" fill="white"/>
<path d="M14.3878 1.95645C13.3481 0.939431 11.9712 0.379395 10.5105 0.379395H5.4895C4.02881 0.379395 2.65173 0.939431 1.61218 1.95645C0.57251 2.97336 0 4.32043 0 5.7493V10.6608C0 12.0898 0.57251 13.4368 1.61218 14.4538C2.65173 15.4708 4.02881 16.0308 5.4895 16.0308H10.5105C11.9712 16.0308 13.3483 15.4708 14.3878 14.4538C15.4274 13.4368 16 12.0898 16 10.6608V5.7493C16 4.32043 15.4274 2.97336 14.3878 1.95645ZM8 12.3472C5.66516 12.3472 3.76562 10.4891 3.76562 8.2051C3.76562 5.92113 5.66516 4.06298 8 4.06298C10.3348 4.06298 12.2344 5.92113 12.2344 8.2051C12.2344 10.4891 10.3348 12.3472 8 12.3472ZM12.6909 4.2649C12.6038 4.35016 12.4828 4.39912 12.3595 4.39912C12.2361 4.39912 12.1154 4.35016 12.0282 4.2649C11.9407 4.17952 11.8907 4.06131 11.8907 3.94058C11.8907 3.81986 11.9407 3.70152 12.0282 3.61626C12.1154 3.53088 12.236 3.48205 12.3595 3.48205C12.4828 3.48205 12.6038 3.53088 12.6909 3.61626C12.7782 3.70152 12.8282 3.81986 12.8282 3.94058C12.8282 4.06119 12.7782 4.17952 12.6909 4.2649Z" fill="white"/>
</g>
<defs>
<clipPath id="clip0_1_11">
<rect width="16" height="15.6514" fill="white" transform="translate(0 0.379395)"/>
</clipPath>
</defs>
</svg>
