<svg width="17" height="15" viewBox="0 0 17 15" fill="none" xmlns="http://www.w3.org/2000/svg">
<path d="M17 2.55977C16.3678 2.83104 15.6942 3.01085 14.9919 3.09815C15.7144 2.67617 16.2658 2.01307 16.5251 1.21381C15.8514 1.60668 15.1077 1.88419 14.3151 2.03905C13.6754 1.37283 12.7638 0.960205 11.7693 0.960205C9.83981 0.960205 8.28644 2.49221 8.28644 4.37032C8.28644 4.64055 8.30981 4.90039 8.36719 5.14775C5.46975 5.00952 2.90594 3.65109 1.18362 1.58174C0.882937 2.09206 0.706563 2.67617 0.706563 3.30498C0.706563 4.48569 1.32812 5.53231 2.25463 6.13826C1.69469 6.12786 1.14538 5.96884 0.68 5.71836C0.68 5.72875 0.68 5.74226 0.68 5.75577C0.68 7.4125 1.88806 8.7886 3.47225 9.10561C3.18856 9.18148 2.87937 9.21786 2.5585 9.21786C2.33538 9.21786 2.11012 9.20538 1.89869 9.15965C2.35025 10.5098 3.63163 11.5024 5.15525 11.5346C3.9695 12.4419 2.46394 12.9886 0.834063 12.9886C0.54825 12.9886 0.274125 12.9762 0 12.9419C1.54381 13.9157 3.37344 14.4718 5.3465 14.4718C11.7597 14.4718 15.266 9.27502 15.266 4.77047C15.266 4.61976 15.2607 4.47425 15.2533 4.32978C15.9449 3.8496 16.5261 3.2499 17 2.55977Z" fill="white"/>
</svg>
